<svg fill="#000000" xmlns="http://www.w3.org/2000/svg"  viewBox="0 0 50 50" width="500px" height="500px"><path d="M 24.78125 7.96875 C 23.75 8.082031 22.976563 8.964844 23 10 L 23 35.09375 L 16.40625 28.5625 C 16.027344 28.179688 15.507813 27.964844 14.96875 27.96875 C 14.140625 27.960938 13.398438 28.464844 13.09375 29.230469 C 12.789063 30 12.988281 30.875 13.59375 31.4375 L 23.59375 41.3125 L 25 42.71875 L 26.40625 41.3125 L 36.40625 31.4375 C 37.199219 30.660156 37.214844 29.386719 36.4375 28.59375 C 35.660156 27.800781 34.386719 27.785156 33.59375 28.5625 L 27 35.09375 L 27 10 C 27.007813 9.457031 26.796875 8.9375 26.414063 8.554688 C 26.03125 8.171875 25.511719 7.960938 24.96875 7.96875 C 24.90625 7.964844 24.84375 7.964844 24.78125 7.96875 Z"/></svg>