<svg fill="#000000" xmlns="http://www.w3.org/2000/svg"  viewBox="0 0 48 48" width="144px" height="144px"><path d="M24,3.999c-11.028,0-20,8.972-20,20c0,3.186,0.77,6.342,2.232,9.171l-2.139,7.657c-0.242,0.868,0.003,1.803,0.64,2.44	C5.209,43.743,5.849,44,6.503,44c0.224,0,0.449-0.03,0.67-0.092l7.661-2.138c2.827,1.46,5.982,2.229,9.165,2.229	c11.028,0,20-8.972,20-20S35.028,3.999,24,3.999z M23.5,32l-9,0.001c-0.828,0-1.5-0.671-1.5-1.5c0-0.828,0.671-1.5,1.5-1.5l9-0.001	c0.828,0,1.5,0.671,1.5,1.5C25,31.328,24.329,32,23.5,32z M33.5,25.499l-19,0.001c-0.828,0-1.5-0.671-1.5-1.5	c0-0.828,0.671-1.5,1.5-1.5l19-0.001c0.828,0,1.5,0.671,1.5,1.5C35,24.827,34.329,25.499,33.5,25.499z M33.5,19l-19,0.001	c-0.828,0-1.5-0.671-1.5-1.5c0-0.828,0.671-1.5,1.5-1.5L33.5,16c0.828,0,1.5,0.671,1.5,1.5C35,18.328,34.329,19,33.5,19z"/></svg>