<svg fill="#000000" xmlns="http://www.w3.org/2000/svg"  viewBox="0 0 50 50" width="500px" height="500px"><path d="M 25 0 C 23.199219 0 21.585938 0.554688 20.34375 1.59375 C 18.921875 2.78125 1.707031 18.035156 0.40625 19.1875 L 8 25.21875 L 8 18 C 8 17.449219 8.449219 17 9 17 L 41 17 C 41.554688 17 42 17.449219 42 18 L 42 25.15625 L 49.53125 19.125 C 47.714844 17.511719 31.191406 2.878906 29.65625 1.59375 C 28.414063 0.554688 26.800781 0 25 0 Z M 50 21.3125 L 35.28125 33.09375 C 39.746094 36.585938 45.847656 41.347656 50 44.59375 Z M 0 21.4375 L 0 44.46875 C 3.90625 41.4375 10.125 36.605469 14.6875 33.0625 Z M 15 22 C 14.449219 22 14 22.449219 14 23 C 14 23.550781 14.449219 24 15 24 L 35 24 C 35.554688 24 36 23.550781 36 23 C 36 22.449219 35.554688 22 35 22 Z M 15 27 C 14.449219 27 14 27.445313 14 28 C 14 28.554688 14.449219 29 15 29 L 19.9375 29 C 20.148438 28.835938 20.320313 28.722656 20.40625 28.65625 C 22.21875 27.242188 24.050781 27.015625 24.875 27 Z M 25.125 27 C 25.949219 27.019531 27.78125 27.238281 29.59375 28.65625 C 29.675781 28.71875 29.851563 28.835938 30.0625 29 L 35 29 C 35.554688 29 36 28.554688 36 28 C 36 27.445313 35.554688 27 35 27 Z M 25 29 C 24.457031 29 23.042969 29.109375 21.625 30.21875 C 20.433594 31.152344 5.878906 42.4375 0 47 L 0 49 C 0 49.554688 0.449219 50 1 50 L 49 50 C 49.554688 50 50 49.554688 50 49 L 50 47.15625 C 43.441406 42.023438 29.519531 31.113281 28.375 30.21875 C 26.957031 29.109375 25.542969 29 25 29 Z"/></svg>